<svg xmlns="http://www.w3.org/2000/svg" width="173" height="36" fill="none"><path fill="#4CBE6C" d="M0 9a9 9 0 0 1 9-9h146.728c7.279 0 11.547 8.19 7.377 14.156l-12.582 18A9 9 0 0 1 143.147 36H9a9 9 0 0 1-9-9V9Z"/><path fill="#fff" d="M13.817 25.5V10.347h5.978c1.145 0 2.121.205 2.93.614.814.405 1.433.98 1.857 1.724.43.74.644 1.61.644 2.612 0 1.006-.217 1.872-.651 2.597-.434.72-1.063 1.273-1.887 1.657-.819.385-1.81.578-2.974.578H15.71v-2.575h3.485c.612 0 1.12-.084 1.524-.252.405-.168.705-.42.903-.755.202-.335.303-.752.303-1.25 0-.503-.101-.927-.303-1.273-.198-.345-.5-.606-.91-.784-.405-.182-.915-.274-1.532-.274h-2.16V25.5h-3.204ZM22 18.604l3.766 6.896H22.23l-3.684-6.896H22Zm10.427 7.118c-1.17 0-2.175-.237-3.019-.71a4.864 4.864 0 0 1-1.938-2.028c-.454-.878-.681-1.916-.681-3.115 0-1.168.227-2.195.68-3.077a5.032 5.032 0 0 1 1.917-2.065c.829-.493 1.8-.74 2.915-.74.75 0 1.448.121 2.094.363a4.645 4.645 0 0 1 1.702 1.073c.488.478.868 1.08 1.14 1.805.27.72.406 1.564.406 2.53v.866h-9.596v-1.953h6.63c0-.454-.1-.856-.297-1.206a2.12 2.12 0 0 0-.821-.821c-.345-.203-.747-.304-1.206-.304-.479 0-.903.111-1.273.333-.365.217-.65.51-.858.88a2.486 2.486 0 0 0-.318 1.221v1.858c0 .562.103 1.048.31 1.457.213.41.511.725.896.947.385.222.84.333 1.369.333.35 0 .67-.05.962-.148.29-.099.54-.247.747-.444.207-.197.365-.439.473-.725l2.915.192a3.98 3.98 0 0 1-.91 1.835c-.453.518-1.04.923-1.76 1.214-.716.286-1.542.429-2.48.429Zm12.408 0c-1.164 0-2.166-.247-3.004-.74a5.001 5.001 0 0 1-1.924-2.072c-.444-.883-.666-1.899-.666-3.048 0-1.164.225-2.185.673-3.063a5.002 5.002 0 0 1 1.931-2.064c.834-.498 1.826-.748 2.975-.748.991 0 1.86.18 2.604.54.745.36 1.334.866 1.769 1.517.434.651.673 1.416.717 2.294h-2.974c-.084-.567-.306-1.024-.666-1.369-.355-.35-.821-.525-1.398-.525-.489 0-.915.133-1.28.4-.36.26-.642.643-.844 1.146-.202.503-.303 1.113-.303 1.828 0 .725.099 1.341.296 1.85.202.508.486.895.85 1.161.366.266.792.4 1.28.4.36 0 .684-.074.97-.222.29-.148.53-.363.718-.644.192-.286.318-.629.377-1.029h2.974c-.05.869-.286 1.633-.71 2.294a4.292 4.292 0 0 1-1.739 1.54c-.74.369-1.615.554-2.626.554Zm12.273 0c-1.17 0-2.176-.237-3.02-.71a4.865 4.865 0 0 1-1.938-2.028c-.453-.878-.68-1.916-.68-3.115 0-1.168.227-2.195.68-3.077a5.032 5.032 0 0 1 1.916-2.065c.83-.493 1.8-.74 2.916-.74.75 0 1.447.121 2.093.363a4.645 4.645 0 0 1 1.702 1.073c.489.478.868 1.08 1.14 1.805.271.72.407 1.564.407 2.53v.866h-9.597v-1.953h6.63c0-.454-.099-.856-.296-1.206a2.12 2.12 0 0 0-.822-.821c-.345-.203-.747-.304-1.206-.304-.478 0-.902.111-1.272.333-.365.217-.651.51-.858.88a2.486 2.486 0 0 0-.319 1.221v1.858c0 .562.104 1.048.311 1.457.212.41.51.725.895.947.385.222.842.333 1.37.333.35 0 .67-.05.961-.148.291-.099.54-.247.747-.444.207-.197.365-.439.474-.725l2.915.192a3.98 3.98 0 0 1-.91 1.835c-.454.518-1.04.923-1.76 1.214-.716.286-1.542.429-2.48.429Zm7.273-.222V14.135h3.151V25.5h-3.151Zm1.583-12.83c-.469 0-.87-.155-1.206-.466a1.511 1.511 0 0 1-.496-1.132c0-.434.165-.806.496-1.117a1.698 1.698 0 0 1 1.206-.473c.468 0 .868.157 1.198.473.336.31.504.683.504 1.117a1.5 1.5 0 0 1-.504 1.132c-.33.311-.73.466-1.198.466Zm10.138 1.465v2.368h-6.844v-2.368h6.844Zm-5.29-2.722h3.152v10.595c0 .29.044.518.133.68a.734.734 0 0 0 .37.333c.163.064.35.097.562.097.148 0 .296-.013.444-.037l.34-.067.496 2.345a8.86 8.86 0 0 1-.666.17c-.286.07-.633.112-1.043.126-.76.03-1.425-.071-1.998-.303a2.788 2.788 0 0 1-1.324-1.08c-.316-.488-.471-1.105-.466-1.85v-11.01Zm10.584 14.302c-.725 0-1.371-.126-1.939-.378a3.121 3.121 0 0 1-1.346-1.132c-.326-.503-.489-1.13-.489-1.88 0-.63.116-1.16.348-1.59.232-.429.548-.774.947-1.036.4-.261.854-.458 1.362-.592.513-.133 1.05-.226 1.613-.28.66-.07 1.193-.134 1.598-.193.404-.064.698-.158.88-.281.183-.124.274-.306.274-.548v-.044c0-.469-.148-.831-.444-1.088-.291-.256-.705-.384-1.243-.384-.567 0-1.018.125-1.354.377a1.736 1.736 0 0 0-.666.932l-2.915-.237a3.96 3.96 0 0 1 .873-1.79c.434-.508.994-.898 1.68-1.17.69-.275 1.49-.414 2.397-.414a7.27 7.27 0 0 1 1.813.222 4.741 4.741 0 0 1 1.546.689c.454.31.811.71 1.073 1.198.261.483.392 1.063.392 1.739V25.5h-2.99v-1.576h-.088a3.208 3.208 0 0 1-.733.94 3.39 3.39 0 0 1-1.102.629c-.43.148-.925.222-1.487.222Zm.903-2.176a2.65 2.65 0 0 0 1.228-.273c.355-.188.634-.44.836-.755.202-.316.303-.673.303-1.073v-1.206a1.684 1.684 0 0 1-.407.178c-.168.049-.357.096-.57.14-.212.04-.424.077-.636.111l-.577.082c-.37.054-.693.14-.97.259a1.55 1.55 0 0 0-.643.48c-.153.198-.23.444-.23.74 0 .43.156.758.467.984.316.222.715.333 1.199.333ZM95.123 25.5V10.347h10.032v2.642h-6.829v3.61h6.163v2.642h-6.163V25.5h-3.203Zm15.226.215c-.725 0-1.371-.126-1.938-.378a3.126 3.126 0 0 1-1.347-1.132c-.325-.503-.488-1.13-.488-1.88 0-.63.116-1.16.348-1.59.232-.429.547-.774.947-1.036a4.587 4.587 0 0 1 1.361-.592 10.375 10.375 0 0 1 1.613-.28c.661-.07 1.194-.134 1.598-.193.405-.064.698-.158.881-.281.182-.124.273-.306.273-.548v-.044c0-.469-.148-.831-.444-1.088-.291-.256-.705-.384-1.243-.384-.567 0-1.018.125-1.354.377a1.734 1.734 0 0 0-.665.932l-2.916-.237c.148-.69.439-1.287.874-1.79.434-.508.993-.898 1.679-1.17.691-.275 1.49-.414 2.397-.414.632 0 1.236.074 1.813.222a4.742 4.742 0 0 1 1.546.689c.454.31.812.71 1.073 1.198.262.483.392 1.063.392 1.739V25.5h-2.989v-1.576h-.089a3.195 3.195 0 0 1-.732.94 3.385 3.385 0 0 1-1.103.629c-.429.148-.924.222-1.487.222Zm.903-2.176c.464 0 .873-.09 1.228-.273.355-.188.634-.44.836-.755.202-.316.304-.673.304-1.073v-1.206a1.701 1.701 0 0 1-.407.178c-.168.049-.358.096-.57.14-.212.04-.424.077-.636.111l-.577.082a3.91 3.91 0 0 0-.97.259 1.55 1.55 0 0 0-.643.48c-.153.198-.23.444-.23.74 0 .43.156.758.466.984.316.222.716.333 1.199.333Zm-.34-10.869 1.568-3.366h2.915l-2.256 3.367h-2.227Zm13.417 13.052c-1.164 0-2.165-.247-3.004-.74a5.005 5.005 0 0 1-1.923-2.072c-.444-.883-.666-1.899-.666-3.048 0-1.164.224-2.185.673-3.063a5.007 5.007 0 0 1 1.931-2.064c.834-.498 1.825-.748 2.975-.748.991 0 1.859.18 2.604.54a4.35 4.35 0 0 1 1.768 1.517c.434.651.674 1.416.718 2.294h-2.974c-.084-.567-.306-1.024-.666-1.369-.355-.35-.822-.525-1.399-.525-.488 0-.915.133-1.28.4-.36.26-.641.643-.843 1.146-.202.503-.303 1.113-.303 1.828 0 .725.098 1.341.296 1.85.202.508.485.895.85 1.161s.792.4 1.28.4c.36 0 .684-.074.97-.222.291-.148.53-.363.717-.644.193-.286.318-.629.378-1.029h2.974c-.049.869-.286 1.633-.71 2.294a4.296 4.296 0 0 1-1.739 1.54c-.74.369-1.615.554-2.627.554Zm7.094-.222V14.135h3.152V25.5h-3.152Zm1.583-12.83c-.468 0-.87-.155-1.206-.466a1.512 1.512 0 0 1-.495-1.132c0-.434.165-.806.495-1.117a1.7 1.7 0 0 1 1.206-.473c.469 0 .868.157 1.199.473.335.31.503.683.503 1.117 0 .44-.168.817-.503 1.132-.331.311-.73.466-1.199.466Zm7.246-2.323V25.5H137.1V10.347h3.152Z"/></svg>